HIERARCHY
ROOT Hips
{
	OFFSET 0.00000 0.00000 0.00000
	CHANNELS 6 Xposition Yposition Zposition Yrotation Zrotation Xrotation 
	JOINT Lumbar
	{
		OFFSET 0 0 0
		CHANNELS 3 Zrotation Xrotation Yrotation
		JOINT Neck
		{
			OFFSET 0.00 0.2701 0.00
			CHANNELS 3 Zrotation Xrotation Yrotation
			End Site
			{
				OFFSET 0.00 0.1379 0.00
			}
		}
		JOINT RightShoulder
		{
			OFFSET 0.0119 0.2289 0.1181
			CHANNELS 3 Zrotation Xrotation Yrotation
			JOINT RightElbow
			{
				OFFSET 0.00 -0.1475 0.00
				CHANNELS 2 Zrotation Yrotation
				JOINT RightWrist
				{
					OFFSET 0.00 -0.1605 0.00
					CHANNELS 2 Zrotation Xrotation
					End Site
					{
						OFFSET 0.0040 -0.1068 0.0006
					}
				}
			}
		}
		JOINT LeftShoulder
		{
			OFFSET 0.0119 0.2289 -0.1181
			CHANNELS 3 Zrotation Xrotation Yrotation
			JOINT LeftElbow
			{
				OFFSET 0.00 -0.1475 0.00
				CHANNELS 2 Zrotation Yrotation
				JOINT LeftWrist
				{
					OFFSET 0.00 -0.1605 0.00
					CHANNELS 2 Zrotation Xrotation
					End Site
					{
						OFFSET 0.0040 -0.1068 -0.0006
					}
				}
			}
		}
	}
	JOINT RightHip
	{
		OFFSET 0.0316 -0.0424 0.0458
		CHANNELS 3 Zrotation Xrotation Yrotation
		JOINT RightKnee
		{
			OFFSET 0.00 -0.2438 0.00
			CHANNELS 1 Zrotation
			JOINT RightAnkle
			{
				OFFSET 0.00 -0.2449 0.00
				CHANNELS 3 Zrotation Xrotation Yrotation
				End Site
				{
					OFFSET 0.1237 -0.0542 0.0051
				}
			}
		}
	}
	JOINT LeftHip
	{
		OFFSET 0.0316 -0.0424 -0.0458
		CHANNELS 3 Zrotation Xrotation Yrotation
		JOINT LeftKnee
		{
			OFFSET 0.00 -0.2438 0.00
			CHANNELS 1 Zrotation
			JOINT LeftAnkle
			{
				OFFSET 0.00 -0.2449 0.00
				CHANNELS 3 Zrotation Xrotation Yrotation
				End Site
				{
					OFFSET 0.1237 -0.0542 -0.0051
				}
			}
		}
	}
}
MOTION
Frames: 17
Frame Time: 0.02
0 0.57926 0 181.4516 0 -3.70214 6.24256 5.35523 -2.86081 -32.47677 3.19101 0.30356 29.23286 -17.57493 17.9712 11.41276 81.55757 -1.94612 -4.04927 26.65693 11.63847 -19.62765 9.01538 -79.46708 -3.24402 2.53094 -4.03167 8.8935 -2.75765 -6.99213 -10.56983 -2.65911 -8.85301 -8.84866 5.04365 22.88503 -0.82615 -6.89727 2.99103 5.09776
-0.00022 0.57922 -0.00016 181.59029 0 -3.69799 6.30387 5.29075 -2.79025 -32.55301 3.13038 0.34126 29.02716 -17.56054 17.47837 11.24156 81.53651 -1.91195 -4.00171 26.33651 11.74771 -19.13053 8.92079 -79.47473 -3.21455 2.45237 -4.03695 9.02383 -1.07107 -7.04086 -10.74537 -2.77088 -10.6033 -8.82474 5.08013 22.79347 -0.86849 -6.86622 2.96925 5.05884
-0.00045 0.57919 -0.00031 181.72969 0 -3.69365 6.36491 5.22607 -2.71995 -32.629 3.07015 0.37893 28.82182 -17.54627 16.988 11.07088 81.51556 -1.8777 -3.95366 26.01854 11.85679 -18.63578 8.82745 -79.48267 -3.18563 2.37475 -4.04226 9.15312 0.59845 -7.08932 -10.91856 -2.88044 -12.33775 -8.80046 5.11668 22.70093 -0.91102 -6.8354 2.94759 5.02008
-0.00067 0.57915 -0.00047 181.8719 0 -3.68862 6.42529 5.16042 -2.64992 -32.70417 3.01112 0.41701 28.61521 -17.53267 16.50181 10.90067 81.49483 -1.84282 -3.90277 25.70602 11.96562 -18.14546 8.73752 -79.49151 -3.15844 2.29974 -4.04806 9.27969 2.22443 -7.13646 -11.08445 -2.97964 -14.03258 -8.77474 5.15347 22.60643 -0.95479 -6.80502 2.92621 4.98086
-0.0009 0.57911 -0.00061 181.99755 0 -3.68735 6.48902 5.10045 -2.57834 -32.78301 2.946 0.45314 28.41444 -17.51593 15.99243 10.72806 81.47292 -1.81132 -3.86644 25.36309 12.07493 -17.6314 8.62872 -79.4952 -3.12187 2.2104 -4.0517 9.42086 4.09077 -7.18975 -11.28945 -3.13059 -15.9451 -8.75691 5.18848 22.52573 -0.99205 -6.77207 2.90335 4.94319
-0.0011 0.57907 -0.0008 182.15922 0 -3.67805 6.5457 5.02813 -2.51022 -32.85448 2.89366 0.4932 28.20212 -17.50556 15.53331 10.56065 81.45354 -1.77264 -3.79968 25.08589 12.1837 -17.16825 8.56047 -79.51003 -3.10531 2.15183 -4.05961 9.53086 5.4403 -7.23056 -11.41123 -3.17406 -17.39004 -8.72224 5.22756 22.4136 -1.04299 -6.74475 2.88365 4.90291
-0.00123 0.57905 -0.00112 182.41936 0 -3.64608 6.58277 4.92151 -2.44935 -32.903 2.87793 0.54707 27.94645 -17.51575 15.19951 10.40377 81.44068 -1.7127 -3.64089 24.98059 12.2889 -16.83628 8.60199 -79.55505 -3.14454 2.17669 -4.08215 9.55628 5.40668 -7.23196 -11.30077 -2.89236 -17.58442 -8.63967 5.27672 22.22769 -1.13535 -6.73145 2.8723 4.8487
-0.00132 0.57904 -0.0015 182.7164 0 -3.60603 6.61274 4.80223 -2.39239 -32.94478 2.87494 0.60453 27.6815 -17.53197 14.91863 10.25268 81.4304 -1.64564 -3.45249 24.94351 12.39394 -16.55691 8.68495 -79.61141 -3.20397 2.233 -4.10838 9.55019 4.84583 -7.22181 -11.10675 -2.50656 -17.30219 -8.54013 5.33031 22.00743 -1.24112 -6.72413 2.86421 4.79302
-0.00142 0.57902 -0.00185 182.99748 0 -3.57 6.6462 4.68883 -2.33498 -32.99116 2.86512 0.65833 27.42715 -17.54335 14.6218 10.10124 81.41927 -1.58278 -3.28283 24.88104 12.50064 -16.25935 8.75038 -79.66307 -3.25385 2.2759 -4.13123 9.55732 4.49402 -7.22 -10.95222 -2.18713 -17.2083 -8.44932 5.38266 21.79417 -1.33829 -6.71505 2.85485 4.74233
-0.00153 0.579 -0.00218 183.27485 0 -3.53263 6.67882 4.5753 -2.27172 -33.03033 2.85931 0.72021 27.14352 -17.56305 14.29055 9.94014 81.40696 -1.51612 -3.09158 24.79397 12.60103 -15.93832 8.8101 -79.71304 -3.30516 2.31483 -4.16174 9.56828 4.26023 -7.20462 -10.7908 -1.78934 -17.22254 -8.35478 5.43158 21.61732 -1.4453 -6.70188 2.84453 4.67346
-0.00162 0.57898 -0.00258 183.56902 0 -3.49595 6.71113 4.45856 -2.22192 -33.0838 2.84864 0.7667 26.92167 -17.56752 14.04393 9.80059 81.39753 -1.45533 -2.93741 24.77555 12.71405 -15.67795 8.89182 -79.76897 -3.35844 2.3698 -4.17659 9.5648 3.6691 -7.21542 -10.62452 -1.52743 -16.91224 -8.26326 5.48887 21.35641 -1.53588 -6.69869 2.83708 4.64203
-0.00165 0.57892 -0.00312 183.89827 0 -3.46456 6.7472 4.34 -2.20514 -33.17092 2.81777 0.76517 26.84761 -17.52307 14.01424 9.7187 81.39725 -1.41575 -2.90026 24.91971 12.86578 -15.57841 9.02168 -79.84089 -3.41088 2.45877 -4.15241 9.51996 2.09805 -7.29524 -10.4597 -1.68908 -15.69907 -8.18992 5.56687 20.87222 -1.57099 -6.72116 2.83601 4.71504
-0.00165 0.57885 -0.00372 184.24361 0 -3.43383 6.78243 4.21789 -2.20215 -33.274 2.7824 0.74921 26.84121 -17.46433 14.06828 9.6585 81.39958 -1.38193 -2.9001 25.13261 13.02921 -15.53711 9.17262 -79.91803 -3.46484 2.56329 -4.11146 9.46308 0.20499 -7.40268 -10.29382 -1.98724 -14.19551 -8.11881 5.65337 20.30458 -1.59084 -6.75351 2.83786 4.82569
-0.00166 0.57879 -0.00431 184.58305 0 -3.40195 6.81644 4.0948 -2.19522 -33.37482 2.75132 0.74253 26.81965 -17.41531 14.08686 9.58845 81.39939 -1.34305 -2.87813 25.32064 13.18518 -15.46486 9.31562 -79.99125 -3.519 2.6624 -4.07476 9.41811 -1.45616 -7.5018 -10.13222 -2.20733 -12.90993 -8.04337 5.7369 19.7748 -1.62152 -6.7817 2.83887 4.91859
-0.0017 0.57873 -0.00483 184.91774 0 -3.37361 6.85791 3.98223 -2.17952 -33.45466 2.71063 0.72324 26.72994 -17.35179 14.09758 9.518 81.40442 -1.31332 -2.87615 25.48375 13.35143 -15.41267 9.4535 -80.0713 -3.57015 2.75561 -4.05217 9.3461 -3.4829 -7.5837 -9.95206 -2.48962 -11.25803 -7.98271 5.81695 19.24392 -1.63426 -6.80889 2.83794 5.01401
-0.00166 0.57867 -0.00551 185.26576 0 -3.33787 6.88254 3.84705 -2.18418 -33.58166 2.68944 0.72827 26.80089 -17.31636 14.1423 9.45417 81.39981 -1.26712 -2.84183 25.71474 13.49748 -15.33274 9.60609 -80.13833 -3.62762 2.86439 -3.99649 9.32642 -4.8354 -7.70686 -9.81091 -2.67844 -10.28953 -7.89028 5.90602 18.69621 -1.68304 -6.84019 2.84169 5.11334
-0.00142 0.57862 -0.00657 185.64631 0 -3.28389 6.87099 3.6506 -2.25134 -33.83792 2.71713 0.79117 27.2772 -17.35081 14.2748 9.39772 81.36196 -1.16456 -2.70858 26.11106 13.59788 -15.15432 9.79731 -80.1671 -3.70239 3.01232 -3.85077 9.4677 -4.09123 -7.94841 -9.78241 -2.55617 -11.42893 -7.72399 6.01927 18.11849 -1.81456 -6.88254 2.85797 5.21354
